# Blender v2.77 (sub 0) OBJ File: ''
# www.blender.org
o nurbsToPoly21_group32
v 0.001062 -0.014818 0.077397
v -0.005344 -0.014777 0.072627
v -0.019790 0.000376 0.072102
v 0.002985 0.002479 0.057504
v -0.004998 0.005624 0.057310
v 0.005393 0.018085 0.067993
v -0.004252 0.018333 0.065512
v 0.001344 0.020777 0.072627
v -0.005062 0.020818 0.077397
v 0.011938 0.014590 0.072574
v 0.010439 0.004091 0.061923
v 0.010176 0.009710 0.063413
v 0.014863 0.009071 0.076696
v 0.014905 0.006483 0.069956
v 0.015790 0.000376 0.078098
v 0.003064 0.012226 0.060497
v -0.013876 0.014869 0.067708
v -0.014527 0.016110 0.076332
v -0.010844 0.000897 0.059523
v -0.016862 0.004903 0.064844
v -0.012262 0.010425 0.062259
v -0.005570 0.012286 0.060049
v -0.018863 0.009071 0.073504
v 0.000526 -0.008590 0.061162
v 0.007729 -0.010108 0.067112
v 0.011821 -0.005993 0.067993
v 0.008793 -0.003070 0.062046
v 0.014608 0.000068 0.068498
v 0.011860 -0.009055 0.075590
v -0.003596 -0.003071 0.058237
v 0.002301 -0.012405 0.066716
v -0.011588 -0.012333 0.072848
v -0.017479 -0.006287 0.075357
v -0.009392 -0.008869 0.063224
v -0.015339 -0.004770 0.065534
v -0.004998 0.000376 0.092890
v -0.008704 0.016997 0.084263
v 0.000526 0.014590 0.089038
v -0.018615 0.001023 0.082248
v -0.013448 0.004730 0.088983
v -0.015886 0.011550 0.083187
v -0.018905 0.006483 0.080243
v -0.003596 0.009071 0.091963
v -0.008948 0.010078 0.090266
v 0.005107 0.018085 0.082493
v 0.005159 0.000705 0.091681
v 0.013051 0.004679 0.085106
v 0.009057 0.009593 0.087837
v 0.003144 0.006483 0.092005
v 0.011820 0.011993 0.082208
v -0.004252 -0.012333 0.084688
v -0.001743 -0.006287 0.090579
v -0.013876 -0.008869 0.082492
v -0.011565 -0.004770 0.088439
v 0.005570 -0.009079 0.086578
v 0.011339 -0.004769 0.084665
vn 0.5031 0.8620 -0.0612
vn 0.1291 0.9023 -0.4114
vn 0.9944 0.1008 -0.0325
vn 0.8203 0.4241 -0.3837
vn 0.4754 0.6154 -0.6287
vn 0.1839 0.7459 -0.6401
vn 0.4537 0.2482 -0.8559
vn 0.1372 0.2897 -0.9472
vn -0.4251 0.8908 -0.1603
vn -0.3852 0.6635 -0.6414
vn -0.3767 0.3243 -0.8677
vn -0.6041 0.1356 -0.7853
vn -0.8543 0.3629 -0.3720
vn 0.7762 -0.3113 -0.5483
vn 0.9011 -0.4006 -0.1661
vn 0.7115 -0.6504 -0.2659
vn 0.5267 -0.1356 -0.8392
vn 0.3476 -0.7173 -0.6038
vn 0.4513 -0.5652 -0.6906
vn 0.1892 -0.3458 -0.9190
vn 0.3945 -0.9051 -0.1587
vn 0.1443 -0.9687 -0.2021
vn -0.5456 -0.3667 -0.7536
vn -0.2478 -0.1422 -0.9583
vn -0.1551 -0.5505 -0.8203
vn -0.8725 -0.1701 -0.4581
vn -0.6205 -0.6820 -0.3871
vn -0.3479 -0.8540 -0.3868
vn -0.4540 0.8589 0.2372
vn -0.0187 0.8778 0.4786
vn -0.8674 0.4761 0.1447
vn -0.5976 0.7172 0.3585
vn -0.9944 0.1008 0.0325
vn -0.8243 0.1654 0.5415
vn -0.5256 0.5680 0.6333
vn -0.2119 0.6447 0.7345
vn 0.0008 0.8819 0.4715
vn 0.5040 0.8626 0.0432
vn 0.0325 0.1008 0.9944
vn 0.3638 0.4215 0.8307
vn 0.5767 0.6102 0.5433
vn 0.6628 0.7210 0.2024
vn 0.8950 0.2862 0.3422
vn -0.7641 -0.3528 0.5401
vn -0.8659 -0.4077 0.2898
vn -0.4755 -0.1439 0.8679
vn -0.3871 -0.6820 0.6205
vn -0.3740 -0.9018 0.2166
vn -0.1626 -0.9641 0.2101
vn 0.5314 -0.3741 0.7600
vn 0.8739 -0.1795 0.4517
vn 0.6320 -0.6861 0.3603
vn 0.9143 0.3799 -0.1402
vn 0.6453 0.6158 -0.4521
vn 0.9924 -0.0183 -0.1216
vn 0.8371 0.1765 -0.5179
vn 0.0506 0.3834 -0.9222
vn 0.0434 0.6645 -0.7460
vn 0.4436 0.2598 -0.8578
vn -0.1518 0.9654 -0.2122
vn -0.3737 0.9025 -0.2142
vn -0.3951 0.6512 -0.6480
vn -0.4710 0.1780 -0.8640
vn -0.8163 0.5599 -0.1422
vn -0.7557 0.3798 -0.5335
vn -0.9457 0.1476 -0.2895
vn 0.9276 -0.3592 -0.1027
vn 0.7733 -0.1882 -0.6055
vn 0.8621 0.0741 -0.5013
vn 0.6380 -0.5110 -0.5760
vn 0.3347 -0.3619 -0.8701
vn -0.0188 -0.1090 -0.9939
vn 0.4534 -0.8844 -0.1110
vn -0.1482 -0.8366 -0.5273
vn -0.7433 -0.6174 -0.2573
vn -0.3579 -0.3770 -0.8543
vn -0.7117 -0.1609 -0.6838
vn -0.8682 -0.4257 -0.2549
vn -0.0809 -0.8593 -0.5051
vn -0.8862 0.4343 0.1612
vn -0.9932 -0.0103 0.1157
vn -0.8145 0.1614 0.5573
vn -0.1562 0.5511 0.8197
vn -0.3767 0.0959 0.9214
vn -0.6270 0.3620 0.6898
vn -0.2740 0.1456 0.9506
vn 0.1577 0.9663 0.2035
vn 0.6183 0.0675 0.7830
vn 0.1402 0.3799 0.9143
vn 0.4517 0.6162 0.6452
vn 0.1186 -0.0142 0.9928
vn 0.5224 0.1350 0.8420
vn 0.8183 0.5523 0.1589
vn 0.7787 0.3400 0.5273
vn 0.9485 0.1465 0.2808
vn -0.2574 -0.6174 0.7433
vn -0.9547 -0.2687 0.1277
vn -0.7291 -0.1822 0.6597
vn -0.6939 -0.7142 0.0920
vn -0.2549 -0.4257 0.8682
vn -0.3461 -0.9061 0.2434
vn 0.1224 -0.2713 0.9547
vn 0.6775 -0.1563 0.7187
vn 0.1044 -0.7160 0.6903
vn 0.3009 -0.4311 0.8507
vn 0.8676 -0.4286 0.2522
vn 0.2032 -0.8720 0.4454
vn 0.4881 -0.8275 0.2777
s off
f 8//1 10//1 6//1
f 8//2 6//2 7//2
f 13//3 15//3 14//3
f 10//4 14//4 12//4
f 6//5 12//5 16//5
f 7//6 6//6 16//6
f 12//7 11//7 4//7
f 16//8 4//8 5//8
f 9//9 17//9 18//9
f 17//10 7//10 22//10
f 22//11 5//11 21//11
f 21//12 19//12 20//12
f 17//13 20//13 23//13
f 26//14 27//14 28//14
f 29//15 26//15 28//15
f 29//16 25//16 26//16
f 11//17 27//17 4//17
f 25//18 31//18 24//18
f 27//19 25//19 24//19
f 4//20 24//20 30//20
f 1//21 31//21 25//21
f 31//22 1//22 2//22
f 34//23 35//23 19//23
f 5//24 30//24 19//24
f 24//25 34//25 30//25
f 20//26 35//26 3//26
f 34//27 32//27 35//27
f 34//28 2//28 32//28
f 9//29 18//29 37//29
f 9//30 37//30 38//30
f 18//31 23//31 41//31
f 37//32 18//32 41//32
f 23//33 3//33 42//33
f 41//34 39//34 40//34
f 37//35 41//35 44//35
f 38//36 37//36 44//36
f 9//37 38//37 45//37
f 8//38 45//38 10//38
f 43//39 36//39 49//39
f 38//40 49//40 48//40
f 45//41 48//41 50//41
f 10//42 45//42 50//42
f 50//43 47//43 13//43
f 53//44 54//44 39//44
f 33//45 53//45 39//45
f 40//46 54//46 36//46
f 53//47 51//47 54//47
f 53//48 2//48 51//48
f 51//49 2//49 1//49
f 55//50 56//50 46//50
f 47//51 56//51 15//51
f 55//52 29//52 56//52
f 14//53 10//53 13//53
f 6//54 10//54 12//54
f 28//55 14//55 15//55
f 11//56 12//56 14//56
f 5//57 22//57 16//57
f 16//58 22//58 7//58
f 4//59 16//59 12//59
f 7//60 9//60 8//60
f 17//61 9//61 7//61
f 17//62 22//62 21//62
f 19//63 21//63 5//63
f 23//64 18//64 17//64
f 20//65 17//65 21//65
f 3//66 23//66 20//66
f 29//67 28//67 15//67
f 27//68 11//68 28//68
f 28//69 11//69 14//69
f 25//70 27//70 26//70
f 24//71 4//71 27//71
f 30//72 5//72 4//72
f 1//73 25//73 29//73
f 2//74 24//74 31//74
f 33//75 35//75 32//75
f 34//76 19//76 30//76
f 35//77 20//77 19//77
f 33//78 3//78 35//78
f 2//79 34//79 24//79
f 42//80 41//80 23//80
f 39//81 42//81 3//81
f 39//82 41//82 42//82
f 43//83 38//83 44//83
f 36//84 44//84 40//84
f 40//85 44//85 41//85
f 36//86 43//86 44//86
f 45//87 8//87 9//87
f 47//88 48//88 46//88
f 49//89 38//89 43//89
f 45//90 38//90 48//90
f 46//91 49//91 36//91
f 46//92 48//92 49//92
f 13//93 10//93 50//93
f 47//94 50//94 48//94
f 15//95 13//95 47//95
f 52//96 54//96 51//96
f 33//97 39//97 3//97
f 54//98 40//98 39//98
f 32//99 53//99 33//99
f 52//100 36//100 54//100
f 2//101 53//101 32//101
f 52//102 46//102 36//102
f 56//103 47//103 46//103
f 51//104 55//104 52//104
f 55//105 46//105 52//105
f 29//106 15//106 56//106
f 1//107 55//107 51//107
f 1//108 29//108 55//108
o group32_nurbsToPoly22
v 0.026923 -0.003512 -0.007325
v -0.001717 0.000043 -0.047442
v -0.010344 -0.016901 -0.021549
v 0.005622 -0.016763 -0.028307
v -0.012897 -0.019414 0.007219
v 0.003364 -0.022099 0.016306
v -0.025186 -0.007859 0.006194
v -0.001281 -0.009855 -0.039594
v -0.011825 -0.004540 -0.038368
v 0.019790 -0.016476 0.013292
v 0.010375 -0.020003 -0.009176
v 0.019116 -0.007201 -0.028125
v 0.008965 -0.004802 -0.042225
v 0.027272 -0.006118 0.023608
v -0.027895 0.008871 0.009739
v -0.023650 0.003638 -0.022945
v -0.014418 0.003936 -0.039037
v -0.007791 0.006306 -0.041543
v 0.005616 0.005293 -0.045935
v 0.026770 0.008383 -0.010393
v 0.029602 0.010066 0.017900
v 0.014428 0.003828 -0.040871
v 0.023028 0.005222 -0.026780
v -0.024944 -0.001247 0.036521
v 0.003546 0.008152 0.075794
v 0.012599 -0.011813 0.052311
v -0.003377 -0.011162 0.059021
v 0.003351 -0.002688 0.069302
v 0.013771 0.002663 0.067379
v -0.011836 -0.016493 0.038177
v -0.017085 -0.002016 0.057616
v -0.007012 0.002426 0.071267
v 0.025430 0.009032 0.051002
v 0.016166 0.011211 0.066937
v 0.009972 0.013312 0.069512
v -0.003902 0.012993 0.073628
v -0.025067 0.010949 0.038020
v -0.012670 0.010680 0.068813
v -0.021280 0.010033 0.054670
vn -0.1096 -0.9893 -0.0962
vn -0.0426 -0.9918 -0.1208
vn -0.6743 -0.7281 -0.1234
vn -0.7849 -0.5303 -0.3206
vn -0.4340 -0.7438 -0.5084
vn -0.1629 -0.9787 -0.1253
vn 0.5589 -0.7835 -0.2715
vn 0.1027 -0.6152 -0.7817
vn 0.8349 -0.5476 -0.0555
vn 0.6770 -0.7158 -0.1713
vn -0.3993 0.8919 -0.2125
vn -0.5858 -0.2402 -0.7740
vn -0.2237 0.5445 -0.8084
vn 0.4711 -0.1623 -0.8670
vn 0.8434 -0.2122 -0.4937
vn 0.9950 -0.0127 -0.0988
vn 0.0391 0.9932 -0.1096
vn 0.0690 -0.9638 0.2576
vn 0.6818 -0.7010 0.2094
vn 0.7963 -0.4659 0.3857
vn 0.4502 -0.6611 0.6001
vn -0.0005 -0.9688 0.2480
vn -0.5355 -0.7402 0.4066
vn -0.0898 -0.5105 0.8552
vn -0.7580 -0.6360 0.1447
vn 0.3480 0.9345 0.0745
vn 0.5900 -0.1241 0.7978
vn 0.2040 0.6438 0.7375
vn -0.4685 -0.0591 0.8815
vn -0.8390 -0.1654 0.5184
vn -0.9946 -0.0225 0.1011
vn 0.0011 0.9983 -0.0580
vn -0.8036 -0.5379 -0.2546
vn -0.1758 -0.8839 -0.4334
vn -0.3783 -0.5852 -0.7172
vn 0.3258 -0.9454 0.0119
vn 0.2222 -0.7652 -0.6043
vn 0.5093 -0.7093 -0.4873
vn 0.7357 -0.6583 -0.1594
vn -0.3799 0.9044 -0.1942
vn -0.9849 -0.1370 -0.1060
vn -0.8275 -0.2910 -0.4801
vn -0.4387 0.3530 -0.8264
vn 0.3454 -0.2206 -0.9122
vn 0.7242 -0.3670 -0.5838
vn 0.2693 0.9323 -0.2413
vn 0.3120 0.9078 -0.2802
vn 0.9758 -0.0428 -0.2145
vn 0.9189 -0.2570 -0.2993
vn 0.9883 -0.1507 -0.0238
vn -0.0071 0.9983 -0.0587
vn 0.3473 -0.9214 0.1741
vn 0.8154 -0.4817 0.3212
vn 0.1955 -0.8157 0.5445
vn 0.3907 -0.4781 0.7866
vn -0.2157 -0.9714 0.0990
vn -0.2055 -0.6849 0.6990
vn -0.4937 -0.6514 0.5762
vn -0.7466 -0.6141 0.2558
vn -0.6862 -0.7216 0.0916
vn 0.3462 0.9353 0.0728
vn 0.9876 -0.0994 0.1214
vn 0.8333 -0.2070 0.5127
vn 0.4633 0.3912 0.7952
vn -0.0004 0.9980 -0.0629
vn -0.0397 0.9976 -0.0566
vn -0.3417 -0.1080 0.9336
vn -0.7164 -0.3045 0.6277
vn -0.2909 0.9494 0.1184
vn -0.3331 0.9292 0.1602
vn -0.9749 -0.0369 0.2197
vn -0.9132 -0.2369 0.3316
vn -0.9846 -0.1689 0.0447
vn -0.0475 0.9965 -0.0685
s off
f 61//109 59//109 62//109
f 62//110 59//110 60//110
f 61//111 63//111 59//111
f 59//112 72//112 65//112
f 59//113 65//113 64//113
f 62//114 60//114 67//114
f 67//115 60//115 68//115
f 64//116 58//116 69//116
f 66//117 57//117 70//117
f 67//118 68//118 66//118
f 74//119 73//119 72//119
f 65//120 73//120 58//120
f 58//121 74//121 75//121
f 69//122 75//122 78//122
f 68//123 78//123 79//123
f 57//124 76//124 77//124
f 75//125 74//125 76//125
f 62//126 82//126 83//126
f 66//127 70//127 82//127
f 82//128 89//128 85//128
f 82//129 85//129 84//129
f 62//130 83//130 86//130
f 86//131 83//131 87//131
f 84//132 81//132 88//132
f 86//133 80//133 63//133
f 91//134 90//134 89//134
f 85//135 90//135 81//135
f 81//136 91//136 92//136
f 88//137 92//137 94//137
f 87//138 94//138 95//138
f 80//139 93//139 71//139
f 92//140 74//140 93//140
f 72//141 59//141 63//141
f 64//142 60//142 59//142
f 58//143 64//143 65//143
f 66//144 62//144 67//144
f 69//145 60//145 64//145
f 68//146 60//146 69//146
f 57//147 66//147 68//147
f 71//148 74//148 72//148
f 71//149 72//149 63//149
f 73//150 65//150 72//150
f 74//151 58//151 73//151
f 75//152 69//152 58//152
f 78//153 68//153 69//153
f 75//154 76//154 79//154
f 79//155 78//155 75//155
f 79//156 76//156 57//156
f 57//157 68//157 79//157
f 77//158 70//158 57//158
f 74//159 77//159 76//159
f 82//160 62//160 66//160
f 89//161 82//161 70//161
f 84//162 83//162 82//162
f 81//163 84//163 85//163
f 62//164 86//164 61//164
f 88//165 83//165 84//165
f 87//166 83//166 88//166
f 80//167 86//167 87//167
f 63//168 61//168 86//168
f 77//169 91//169 89//169
f 77//170 89//170 70//170
f 90//171 85//171 89//171
f 91//172 81//172 90//172
f 74//173 91//173 77//173
f 74//174 92//174 91//174
f 92//175 88//175 81//175
f 94//176 87//176 88//176
f 92//177 93//177 95//177
f 95//178 94//178 92//178
f 95//179 93//179 80//179
f 80//180 87//180 95//180
f 71//181 63//181 80//181
f 74//182 71//182 93//182
