# Blender v2.77 (sub 0) OBJ File: ''
# www.blender.org
o new_feet:nurbsToPoly17_new_feet:group30
v -0.012253 -0.000054 0.032703
v -0.032684 -0.020765 0.029456
v -0.008052 -0.029915 0.005979
v 0.003931 -0.043772 0.019607
v -0.003816 -0.049872 0.031578
v 0.009937 -0.042798 0.039040
v -0.010093 -0.046864 0.019555
v 0.012714 -0.021303 0.017655
v 0.010432 -0.033462 0.017157
v 0.014079 -0.034878 0.025074
v 0.016857 -0.030512 0.032155
v -0.007031 -0.035615 0.008221
v 0.003764 -0.031046 0.009698
v -0.020659 -0.044577 0.023618
v -0.021269 -0.046463 0.037891
v -0.014074 -0.049315 0.032462
v -0.021176 -0.038380 0.014945
v -0.017386 -0.021031 0.008038
v -0.019479 -0.029824 0.009596
v -0.028619 -0.028946 0.018314
v -0.030523 -0.035875 0.030048
v -0.003281 -0.000650 0.029048
v -0.005420 -0.005394 0.016490
v 0.006528 -0.008185 0.020029
v 0.015537 -0.015485 0.029765
v 0.014994 -0.015279 0.041140
v -0.006775 -0.015608 0.007493
v 0.003315 -0.015797 0.010633
v 0.006550 -0.003847 0.033982
v -0.026665 -0.007342 0.035333
v -0.015098 -0.003520 0.020987
v -0.018054 -0.012105 0.012799
v -0.026623 -0.011435 0.022457
v -0.026942 -0.020099 0.016464
v 0.015775 -0.031085 0.042339
v -0.008442 -0.031093 0.062303
v -0.018741 -0.042805 0.050816
v -0.004274 -0.041143 0.056424
v -0.004368 -0.049851 0.039802
v -0.026824 -0.031065 0.052118
v -0.029809 -0.035416 0.042278
v -0.031911 -0.021327 0.042510
v -0.019437 -0.031047 0.058894
v 0.002527 -0.043423 0.050211
v 0.004356 -0.030480 0.058636
v 0.011189 -0.031075 0.052067
v -0.010249 -0.005393 0.052104
v -0.014180 -0.011397 0.057494
v -0.026352 -0.016239 0.051311
v -0.007759 -0.019973 0.062490
v -0.019382 -0.018886 0.058655
v -0.018610 -0.003065 0.042899
v 0.006462 -0.008245 0.048707
v 0.001871 -0.015354 0.058672
v 0.010999 -0.018889 0.051964
v -0.002821 -0.001755 0.044904
vn 0.0931 0.9934 0.0665
vn 0.4366 -0.8951 -0.0901
vn 0.8639 -0.5028 -0.0289
vn 0.5547 -0.5066 -0.6600
vn 0.3446 -0.5739 -0.7429
vn 0.7235 -0.1079 -0.6818
vn -0.4519 -0.8817 -0.1358
vn -0.6880 0.0353 -0.7248
vn -0.3299 -0.3961 -0.8569
vn -0.3682 -0.7667 -0.5259
vn -0.3010 -0.0964 -0.9487
vn -0.7824 -0.4723 -0.4059
vn -0.7004 -0.7031 -0.1228
vn 0.9678 0.0456 -0.2475
vn 0.2976 0.0671 -0.9523
vn 0.3507 0.6654 -0.6590
vn 0.6884 0.4303 -0.5839
vn 0.0157 0.9345 -0.3557
vn -0.5287 0.6741 -0.5159
vn -0.6032 0.3398 -0.7216
vn -0.1091 0.1142 -0.9875
vn -0.1787 0.7106 -0.6805
vn -0.8804 0.2912 -0.3742
vn -0.5696 0.7828 -0.2507
vn -0.8765 0.4580 -0.1485
vn -0.0473 0.9609 -0.2728
vn -0.4541 0.8907 -0.0201
vn -0.0544 -0.9985 -0.0011
vn -0.0780 -0.8829 0.4630
vn -0.7759 -0.6271 0.0688
vn -0.6841 -0.6557 0.3194
vn -0.9888 -0.1394 0.0525
vn -0.9275 -0.1441 0.3451
vn -0.5924 -0.4797 0.6472
vn -0.2478 -0.5585 0.7916
vn 0.1254 -0.8791 0.4598
vn 0.4394 -0.8648 0.2431
vn 0.5766 -0.5014 0.6451
vn 0.2768 -0.0332 0.9604
vn 0.7853 -0.4958 0.3707
vn 0.8851 -0.4603 0.0682
vn -0.8472 0.4569 0.2710
vn -0.7130 0.0607 0.6986
vn -0.3116 0.0200 0.9500
vn -0.3908 0.7433 0.5430
vn -0.1211 0.9306 0.3454
vn -0.1083 0.9697 0.2188
vn 0.6139 0.0990 0.7832
vn 0.2565 0.7299 0.6336
vn 0.0721 0.5418 0.8374
vn 0.9361 0.0175 0.3513
vn 0.9975 0.0528 0.0467
vn 0.7233 0.6604 0.2016
vn 0.7705 0.4626 0.4386
vn 0.6612 -0.7488 0.0463
vn 0.2039 -0.9193 -0.3365
vn 0.7018 -0.6887 -0.1824
vn 0.7150 -0.5526 -0.4282
vn 0.9438 -0.0804 -0.3207
vn 0.8878 -0.1488 -0.4356
vn 0.1617 -0.7219 -0.6728
vn 0.2577 -0.3133 -0.9140
vn -0.0709 -0.9757 -0.2071
vn -0.3007 -0.9157 -0.2666
vn -0.2107 -0.6648 -0.7167
vn -0.2695 -0.4715 -0.8397
vn -0.6750 -0.2903 -0.6783
vn -0.7382 -0.5689 -0.3625
vn -0.9591 -0.1467 -0.2422
vn 0.2430 0.6228 -0.7437
vn 0.7387 0.6433 -0.2012
vn 0.7959 0.6048 0.0271
vn 0.7980 0.4491 -0.4018
vn 0.6218 0.0661 -0.7804
vn 0.3058 0.0732 -0.9493
vn 0.4178 0.8674 -0.2703
vn 0.3160 0.8685 -0.3819
vn -0.6627 -0.0309 -0.7482
vn -0.1388 0.6649 -0.7340
vn -0.2678 0.4378 -0.8583
vn -0.6537 0.4466 -0.6109
vn -0.9127 0.0896 -0.3988
vn -0.4674 0.8722 -0.1445
vn -0.2153 -0.9526 0.2151
vn -0.2203 -0.9265 0.3052
vn -0.7097 -0.5390 0.4536
vn -0.9869 -0.1483 0.0631
vn -0.2418 -0.5627 0.7905
vn 0.4700 -0.5272 0.7079
vn 0.2701 -0.4003 0.8757
vn 0.7046 -0.5598 0.4361
vn -0.6809 0.6341 0.3664
vn -0.8582 0.0551 0.5103
vn -0.9214 0.3821 0.0710
vn -0.6759 0.0175 0.7368
vn -0.2962 0.0021 0.9551
vn -0.5327 0.6552 0.5357
vn -0.5416 0.4829 0.6881
vn -0.2684 0.3269 0.9061
vn 0.2499 0.7301 0.6360
vn 0.3453 0.0545 0.9369
vn 0.6937 0.0169 0.7200
vn 0.0983 0.6284 0.7717
vn 0.6345 0.4604 0.6208
vn 0.9019 0.0768 0.4251
vn 0.9883 0.1044 0.1109
vn 0.4825 0.8385 0.2533
vn 0.2821 0.9576 0.0585
s off
f 1//1 56//1 22//1
f 39//2 4//2 6//2
f 6//3 10//3 11//3
f 4//4 13//4 9//4
f 4//5 12//5 13//5
f 9//6 13//6 8//6
f 16//7 15//7 14//7
f 18//8 19//8 20//8
f 3//9 12//9 17//9
f 14//10 17//10 7//10
f 18//11 3//11 19//11
f 20//12 17//12 21//12
f 15//13 21//13 14//13
f 11//14 8//14 25//14
f 13//15 27//15 28//15
f 24//16 28//16 23//16
f 8//17 28//17 24//17
f 23//18 31//18 22//18
f 31//19 32//19 33//19
f 32//20 18//20 34//20
f 3//21 18//21 27//21
f 23//22 32//22 31//22
f 33//23 34//23 2//23
f 31//24 33//24 30//24
f 2//25 30//25 33//25
f 31//26 1//26 22//26
f 30//27 52//27 1//27
f 5//28 39//28 16//28
f 39//29 38//29 37//29
f 15//30 41//30 21//30
f 37//31 41//31 15//31
f 21//32 42//32 2//32
f 41//33 40//33 42//33
f 37//34 43//34 40//34
f 37//35 36//35 43//35
f 39//36 44//36 38//36
f 39//37 6//37 44//37
f 44//38 46//38 45//38
f 50//39 36//39 45//39
f 6//40 35//40 46//40
f 6//41 11//41 35//41
f 42//42 49//42 30//42
f 40//43 51//43 49//43
f 43//44 50//44 51//44
f 52//45 48//45 47//45
f 47//46 56//46 52//46
f 52//47 56//47 1//47
f 45//48 55//48 54//48
f 47//49 54//49 56//49
f 50//50 54//50 48//50
f 46//51 26//51 55//51
f 35//52 25//52 26//52
f 53//53 26//53 29//53
f 55//54 26//54 53//54
f 4//55 39//55 5//55
f 4//56 5//56 7//56
f 10//57 6//57 4//57
f 9//58 10//58 4//58
f 8//59 11//59 10//59
f 8//60 10//60 9//60
f 7//61 12//61 4//61
f 3//62 13//62 12//62
f 7//63 5//63 16//63
f 14//64 7//64 16//64
f 12//65 7//65 17//65
f 19//66 3//66 17//66
f 20//67 19//67 17//67
f 17//68 14//68 21//68
f 2//69 20//69 21//69
f 27//70 23//70 28//70
f 25//71 24//71 29//71
f 25//72 29//72 26//72
f 24//73 25//73 8//73
f 28//74 8//74 13//74
f 27//75 13//75 3//75
f 22//76 29//76 24//76
f 22//77 24//77 23//77
f 34//78 18//78 20//78
f 23//79 27//79 32//79
f 32//80 27//80 18//80
f 33//81 32//81 34//81
f 2//82 34//82 20//82
f 1//83 31//83 30//83
f 15//84 16//84 39//84
f 37//85 15//85 39//85
f 40//86 41//86 37//86
f 42//87 21//87 41//87
f 36//88 37//88 38//88
f 45//89 38//89 44//89
f 45//90 36//90 38//90
f 46//91 44//91 6//91
f 49//92 52//92 30//92
f 49//93 42//93 40//93
f 30//94 2//94 42//94
f 51//95 40//95 43//95
f 50//96 43//96 36//96
f 48//97 52//97 49//97
f 48//98 49//98 51//98
f 48//99 51//99 50//99
f 54//100 53//100 56//100
f 54//101 50//101 45//101
f 55//102 45//102 46//102
f 54//103 47//103 48//103
f 53//104 54//104 55//104
f 26//105 46//105 35//105
f 25//106 35//106 11//106
f 56//107 53//107 29//107
f 22//108 56//108 29//108
o new_feet:group30_new_feet:nurbsToPoly18
v 0.012448 -0.052035 -0.006058
v 0.155949 -0.024891 -0.017511
v 0.127837 -0.023442 0.016233
v 0.080094 0.005261 0.020777
v 0.128426 -0.007974 0.013684
v 0.074223 -0.019084 0.026912
v 0.101064 -0.015377 0.024433
v 0.125598 0.016575 -0.016411
v 0.138130 0.004640 -0.004971
v 0.104289 0.014802 0.007285
v 0.148858 -0.024163 -0.002210
v 0.148396 -0.011659 -0.003732
v 0.060226 -0.045824 0.014803
v 0.098353 -0.039412 0.020298
v 0.021176 -0.031001 0.021377
v 0.123603 -0.054662 -0.017387
v 0.121485 -0.047757 0.003722
v 0.144635 -0.041483 -0.015346
v 0.091398 -0.059708 -0.012523
v 0.119677 0.015996 -0.025243
v 0.095580 0.023512 -0.020599
v 0.145150 0.001993 -0.021973
v 0.150582 -0.018368 -0.026208
v 0.148355 -0.035321 -0.024065
v 0.154403 -0.010903 -0.019786
v 0.121864 -0.052257 -0.026028
v 0.081672 -0.059662 -0.023678
v 0.024169 0.021743 -0.023167
v -0.050768 -0.002223 -0.007972
v -0.024917 -0.032725 0.010855
v 0.028981 -0.009913 0.024280
v -0.037714 -0.041388 -0.008744
v -0.054129 -0.029396 -0.016142
v -0.046738 -0.027311 -0.001183
v -0.000052 -0.050687 -0.026551
v -0.044037 0.001381 -0.000947
v -0.021671 -0.003857 0.013388
v 0.017463 0.011296 0.011009
v -0.027023 0.015464 -0.016936
v -0.021224 0.010862 -0.000203
v -0.039444 -0.037558 -0.025936
v -0.040597 -0.041906 -0.021295
v -0.052928 -0.027987 -0.023473
v -0.042021 -0.001289 -0.025841
v -0.053179 -0.001925 -0.021615
v -0.040988 0.009802 -0.022550
vn -0.0007 0.0138 -0.9999
vn 0.2593 0.5059 0.8227
vn 0.3286 0.1413 0.9338
vn 0.1868 0.9528 0.2393
vn 0.6334 0.4469 0.6317
vn 0.6649 0.1145 0.7381
vn 0.9221 0.1593 0.3526
vn 0.5656 -0.4893 0.6638
vn 0.7846 -0.4846 0.3867
vn -0.0561 -0.9145 0.4007
vn 0.0611 -0.8547 0.5156
vn 0.0697 -0.8550 0.5139
vn 0.1939 -0.9265 0.3225
vn 0.4830 0.7909 -0.3757
vn 0.7727 0.5929 0.2268
vn 0.7718 -0.1785 -0.6102
vn 0.5257 -0.7841 -0.3299
vn 0.1650 -0.1450 -0.9756
vn 0.1565 -0.9429 -0.2940
vn -0.0263 0.9574 0.2875
vn -0.2168 -0.0611 0.9743
vn -0.0794 -0.1070 0.9911
vn -0.2105 -0.9755 0.0642
vn -0.4880 -0.6347 0.5992
vn -0.4871 -0.0218 0.8731
vn -0.1306 0.4740 0.8708
vn -0.0873 0.4939 0.8651
vn -0.0090 0.8240 0.5665
vn -0.0816 0.9534 0.2905
vn -0.5150 -0.5581 -0.6506
vn -0.6312 -0.7554 0.1761
vn -0.6814 0.7192 0.1361
vn -0.4525 0.8506 0.2677
vn -0.3531 0.2962 -0.8875
vn -0.1635 0.8681 -0.4687
vn -0.0124 0.1505 -0.9885
vn 0.2393 0.3999 0.8848
vn 0.0578 0.2308 0.9713
vn 0.4246 0.6321 0.6482
vn 0.3968 0.8172 0.4180
vn 0.6582 0.0979 0.7464
vn 0.7904 0.5222 0.3204
vn 0.9056 0.0841 0.4157
vn -0.0418 -0.4951 0.8678
vn 0.1152 -0.1810 0.9767
vn 0.2346 -0.1904 0.9533
vn -0.0232 -0.3342 0.9422
vn 0.3781 -0.4997 0.7793
vn 0.6095 -0.5680 0.5531
vn 0.4816 -0.8175 0.3158
vn 0.2494 0.9410 -0.2289
vn 0.6166 0.7758 0.1338
vn 0.6097 0.3140 -0.7278
vn 0.8543 0.0099 -0.5198
vn 0.2639 0.2634 -0.9279
vn 0.8221 -0.5671 -0.0500
vn 0.5247 -0.7870 -0.3247
vn 0.1356 -0.9832 -0.1222
vn -0.1092 -0.9940 0.0012
vn -0.0904 -0.9931 0.0748
vn 0.0002 -0.3034 -0.9529
vn 0.0042 -0.0089 -1.0000
vn -0.0346 0.9508 0.3078
vn -0.8950 -0.0232 0.4455
vn -0.2204 -0.0525 0.9740
vn -0.1500 -0.7996 0.5815
vn -0.1383 -0.6826 0.7176
vn -0.2050 -0.8387 0.5045
vn -0.6512 -0.6381 0.4107
vn -0.5319 0.0431 0.8457
vn -0.7367 0.0638 0.6732
vn -0.0066 0.2458 0.9693
vn -0.2145 0.6661 0.7144
vn -0.2942 0.6532 0.6977
vn -0.3677 0.8562 0.3629
vn -0.0904 0.9572 0.2749
vn -0.2371 -0.6789 -0.6948
vn -0.2002 -0.9760 0.0863
vn -0.7067 -0.6643 -0.2435
vn -0.9821 0.0688 0.1751
vn -0.9869 0.0020 -0.1613
vn -0.3567 0.0631 -0.9321
vn -0.1870 -0.0107 -0.9823
vn -0.0151 0.0015 -0.9999
vn -0.6209 0.7560 0.2070
vn -0.0620 0.2892 -0.9552
vn 0.0158 0.5618 -0.8271
vn 0.0006 0.0286 -0.9996
s off
f 91//109 100//109 79//109
f 66//110 60//110 61//110
f 63//111 59//111 61//111
f 66//112 64//112 77//112
f 65//113 61//113 68//113
f 61//114 67//114 68//114
f 81//115 68//115 58//115
f 59//116 73//116 67//116
f 67//117 74//117 58//117
f 69//118 57//118 75//118
f 70//119 75//119 73//119
f 69//120 75//120 70//120
f 73//121 75//121 72//121
f 64//122 78//122 76//122
f 65//123 81//123 78//123
f 58//124 80//124 79//124
f 74//125 82//125 80//125
f 79//126 80//126 82//126
f 72//127 83//127 82//127
f 66//128 84//128 94//128
f 86//129 87//129 93//129
f 62//130 87//130 71//130
f 88//131 91//131 57//131
f 86//132 90//132 88//132
f 93//133 90//133 86//133
f 93//134 87//134 94//134
f 87//135 60//135 94//135
f 60//136 66//136 94//136
f 95//137 96//137 84//137
f 97//138 98//138 99//138
f 88//139 89//139 98//139
f 85//140 102//140 101//140
f 92//141 95//141 102//141
f 101//142 102//142 100//142
f 95//143 84//143 102//143
f 84//144 76//144 100//144
f 61//145 60//145 63//145
f 63//146 60//146 62//146
f 66//147 61//147 65//147
f 64//148 66//148 65//148
f 67//149 61//149 59//149
f 81//150 65//150 68//150
f 58//151 68//151 67//151
f 69//152 70//152 71//152
f 70//153 63//153 62//153
f 70//154 59//154 63//154
f 71//155 70//155 62//155
f 73//156 59//156 70//156
f 67//157 73//157 74//157
f 72//158 74//158 73//158
f 76//159 77//159 64//159
f 78//160 64//160 65//160
f 79//161 78//161 81//161
f 79//162 81//162 58//162
f 78//163 79//163 76//163
f 80//164 58//164 74//164
f 82//165 74//165 72//165
f 83//166 72//166 75//166
f 83//167 57//167 91//167
f 57//168 83//168 75//168
f 83//169 91//169 82//169
f 79//170 82//170 91//170
f 77//171 84//171 66//171
f 85//172 89//172 90//172
f 86//173 71//173 87//173
f 86//174 57//174 69//174
f 86//175 69//175 71//175
f 88//176 57//176 86//176
f 89//177 88//177 90//177
f 92//178 90//178 93//178
f 90//179 92//179 85//179
f 87//180 62//180 60//180
f 96//181 93//181 94//181
f 96//182 92//182 93//182
f 95//183 92//183 96//183
f 84//184 96//184 94//184
f 97//185 91//185 98//185
f 91//186 88//186 98//186
f 99//187 98//187 89//187
f 101//188 89//188 85//188
f 99//189 89//189 101//189
f 100//190 99//190 101//190
f 100//191 97//191 99//191
f 100//192 91//192 97//192
f 102//193 85//193 92//193
f 100//194 102//194 84//194
f 76//195 84//195 77//195
f 100//196 76//196 79//196
