# Blender v2.77 (sub 0) OBJ File: ''
# www.blender.org
o nurbsToPoly7_body4poly
v -0.006661 -0.025942 0.109218
v 0.005254 -0.025292 0.110121
v -0.031181 0.004412 0.109210
v 0.006557 0.004482 0.083413
v 0.008922 0.025803 0.097074
v -0.005670 0.027977 0.096378
v 0.013068 0.028496 0.109351
v -0.005231 0.032191 0.107110
v 0.020747 0.005825 0.093258
v 0.022186 0.016060 0.100593
v 0.023469 0.016454 0.119513
v 0.026044 0.001592 0.103549
v 0.027181 0.004412 0.114790
v 0.005512 0.016454 0.086531
v -0.016926 0.025803 0.101078
v -0.017622 0.027977 0.115670
v -0.020742 0.005825 0.089252
v -0.013407 0.016059 0.087814
v -0.010451 0.001592 0.083956
v -0.027469 0.016454 0.104487
v -0.027809 0.004403 0.098153
v -0.001672 -0.008695 0.084866
v 0.009715 -0.009345 0.087906
v 0.012292 -0.017603 0.096674
v 0.020211 -0.009510 0.096999
v 0.013644 -0.022510 0.112975
v 0.025134 -0.008695 0.112328
v 0.000649 -0.022496 0.096932
v -0.020278 -0.019803 0.109169
v -0.029134 -0.008695 0.111672
v -0.026094 -0.009345 0.100285
v -0.015015 -0.018354 0.096149
v -0.017001 -0.009511 0.089789
v -0.004790 0.004412 0.141181
v -0.012921 0.025803 0.126926
v 0.001670 0.027977 0.127622
v -0.000782 0.031973 0.117346
v -0.024747 0.005824 0.130742
v -0.026186 0.016060 0.123407
v -0.030043 0.001592 0.120451
v -0.009513 0.016454 0.137469
v -0.015847 0.004403 0.137809
v 0.012926 0.025803 0.122922
v 0.016742 0.005825 0.134747
v 0.009406 0.016060 0.136186
v 0.006451 0.001592 0.140043
v 0.023809 0.004402 0.125847
v -0.006044 -0.025921 0.117625
v -0.004831 -0.019803 0.130278
v -0.002328 -0.008695 0.139134
v -0.013715 -0.009345 0.136094
v -0.017851 -0.018354 0.125014
v -0.024211 -0.009510 0.127001
v 0.022095 -0.009345 0.123716
v 0.011015 -0.018355 0.127851
v 0.013001 -0.009511 0.134210
vn 0.1542 0.9175 -0.3666
vn 0.7820 0.6198 -0.0659
vn 0.6124 0.7033 -0.3611
vn 0.9451 0.3191 -0.0707
vn 0.9029 0.1592 -0.3992
vn 0.5562 0.5243 -0.6448
vn 0.5930 0.4123 -0.6916
vn 0.1395 0.7180 -0.6819
vn -0.4115 0.8984 -0.1535
vn -0.0663 0.6103 -0.7894
vn -0.3882 0.6906 -0.6103
vn -0.0707 0.2456 -0.9668
vn -0.3992 0.1592 -0.9029
vn -0.6448 0.5243 -0.5562
vn -0.6916 0.4123 -0.5930
vn -0.6819 0.7180 -0.1395
vn -0.9413 0.1775 -0.2871
vn 0.1657 -0.6332 -0.7561
vn 0.9878 -0.1422 -0.0643
vn 0.9084 -0.3150 -0.2750
vn 0.6393 -0.2033 -0.7416
vn 0.2362 -0.2511 -0.9387
vn 0.2630 -0.6626 -0.7013
vn 0.3945 -0.8612 -0.3203
vn 0.0704 -0.9706 -0.2303
vn -0.7886 -0.5889 -0.1769
vn -0.0147 -0.1005 -0.9948
vn -0.2750 -0.3150 -0.9084
vn -0.1182 -0.5971 -0.7934
vn -0.7416 -0.2033 -0.6393
vn -0.9563 -0.1575 -0.2463
vn -0.6664 -0.6620 -0.3430
vn -0.2184 -0.8981 -0.3818
vn -0.4109 -0.9111 0.0324
vn -0.1539 0.9080 0.3898
vn -0.7894 0.6103 0.0662
vn -0.6102 0.6906 0.3882
vn -0.9451 0.3191 0.0707
vn -0.9029 0.1592 0.3992
vn -0.5562 0.5243 0.6448
vn -0.5930 0.4123 0.6916
vn -0.1395 0.7180 0.6819
vn -0.2872 0.1775 0.9413
vn 0.3726 0.8915 0.2578
vn 0.0662 0.6103 0.7894
vn 0.3882 0.6905 0.6103
vn 0.0707 0.3190 0.9451
vn 0.3992 0.1592 0.9029
vn 0.6448 0.5243 0.5562
vn 0.6916 0.4123 0.5930
vn 0.6826 0.7154 0.1491
vn 0.9413 0.1775 0.2871
vn -0.1769 -0.5889 0.7886
vn -0.9878 -0.1422 0.0643
vn -0.9084 -0.3150 0.2750
vn -0.7805 -0.6004 0.1744
vn -0.6393 -0.2033 0.7416
vn -0.2463 -0.1575 0.9563
vn -0.3431 -0.6620 0.6664
vn 0.7618 -0.6257 0.1676
vn 0.0643 -0.1422 0.9878
vn 0.2750 -0.3150 0.9084
vn 0.1744 -0.6004 0.7805
vn 0.7416 -0.2033 0.6393
vn 0.9563 -0.1575 0.2462
vn 0.6668 -0.6789 0.3075
vn 0.2311 -0.9257 0.2995
vn 0.0546 -0.9985 -0.0016
vn 0.2238 -0.9398 0.2581
vn 0.2055 0.9763 -0.0685
vn 0.2228 0.9338 -0.2801
vn 0.9621 0.2251 -0.1538
vn 0.5345 0.2564 -0.8054
vn -0.3120 0.8886 -0.3362
vn -0.0722 0.2432 -0.9673
vn -0.7671 0.3154 -0.5587
vn 0.6955 -0.6701 -0.2594
vn 0.8520 -0.1520 -0.5010
vn 0.7475 -0.6313 -0.2065
vn 0.5734 -0.1318 -0.8086
vn 0.5556 -0.5176 -0.6507
vn 0.3645 -0.8829 -0.2960
vn -0.5010 -0.1520 -0.8520
vn -0.1964 -0.6639 -0.7216
vn -0.7535 -0.1915 -0.6289
vn -0.9373 -0.2000 -0.2856
vn -0.6415 -0.5376 -0.5472
vn -0.3963 -0.8811 -0.2582
vn -0.2408 0.9625 0.1252
vn -0.2480 0.9266 0.2825
vn -0.9621 0.2251 0.1538
vn -0.5587 0.3153 0.7671
vn 0.2622 0.9460 0.1905
vn 0.1538 0.2251 0.9621
vn 0.7671 0.3153 0.5587
vn -0.8520 -0.1520 0.5010
vn -0.7424 -0.6380 0.2045
vn -0.6289 -0.1915 0.7535
vn -0.2856 -0.2000 0.9372
vn -0.5473 -0.5376 0.6414
vn -0.4647 -0.8725 0.1510
vn -0.2730 -0.8555 0.4399
vn 0.5010 -0.1520 0.8520
vn 0.2045 -0.6380 0.7424
vn 0.7535 -0.1915 0.6289
vn 0.9373 -0.2000 0.2856
vn 0.6414 -0.5376 0.5473
vn 0.1461 -0.8960 0.4193
s off
f 8//1 5//1 6//1
f 7//2 11//2 10//2
f 5//3 7//3 10//3
f 11//4 13//4 10//4
f 10//5 12//5 9//5
f 5//6 10//6 14//6
f 10//7 9//7 14//7
f 6//8 5//8 14//8
f 8//9 15//9 16//9
f 6//10 14//10 18//10
f 15//11 6//11 18//11
f 14//12 4//12 18//12
f 18//13 19//13 17//13
f 15//14 18//14 20//14
f 18//15 17//15 20//15
f 16//16 15//16 20//16
f 20//17 21//17 3//17
f 28//18 22//18 23//18
f 13//19 27//19 12//19
f 12//20 27//20 25//20
f 9//21 25//21 23//21
f 4//22 23//22 22//22
f 24//23 28//23 23//23
f 2//24 28//24 26//24
f 28//25 2//25 1//25
f 29//26 30//26 31//26
f 4//27 22//27 19//27
f 19//28 22//28 33//28
f 28//29 32//29 33//29
f 17//30 33//30 31//30
f 21//31 31//31 30//31
f 32//32 29//32 31//32
f 32//33 28//33 1//33
f 29//34 1//34 48//34
f 37//35 35//35 36//35
f 16//36 20//36 39//36
f 35//37 16//37 39//37
f 20//38 3//38 39//38
f 39//39 40//39 38//39
f 35//40 39//40 41//40
f 39//41 38//41 41//41
f 36//42 35//42 41//42
f 41//43 42//43 34//43
f 37//44 36//44 7//44
f 36//45 41//45 45//45
f 43//46 36//46 45//46
f 41//47 34//47 45//47
f 45//48 46//48 44//48
f 43//49 45//49 11//49
f 45//50 44//50 11//50
f 7//51 43//51 11//51
f 11//52 47//52 13//52
f 49//53 50//53 51//53
f 3//54 30//54 40//54
f 40//55 30//55 53//55
f 29//56 52//56 53//56
f 38//57 53//57 51//57
f 42//58 51//58 50//58
f 52//59 49//59 51//59
f 26//60 27//60 54//60
f 34//61 50//61 46//61
f 46//62 50//62 56//62
f 49//63 55//63 56//63
f 44//64 56//64 54//64
f 47//65 54//65 27//65
f 55//66 26//66 54//66
f 55//67 48//67 26//67
f 1//68 2//68 48//68
f 26//69 48//69 2//69
f 7//70 8//70 37//70
f 5//71 8//71 7//71
f 12//72 10//72 13//72
f 4//73 14//73 9//73
f 15//74 8//74 6//74
f 19//75 18//75 4//75
f 21//76 20//76 17//76
f 25//77 26//77 24//77
f 25//78 9//78 12//78
f 26//79 25//79 27//79
f 23//80 4//80 9//80
f 24//81 23//81 25//81
f 28//82 24//82 26//82
f 33//83 17//83 19//83
f 28//84 33//84 22//84
f 31//85 21//85 17//85
f 30//86 3//86 21//86
f 32//87 31//87 33//87
f 1//88 29//88 32//88
f 16//89 37//89 8//89
f 35//90 37//90 16//90
f 40//91 39//91 3//91
f 42//92 41//92 38//92
f 43//93 7//93 36//93
f 46//94 45//94 34//94
f 47//95 11//95 44//95
f 53//96 38//96 40//96
f 29//97 53//97 30//97
f 51//98 42//98 38//98
f 50//99 34//99 42//99
f 52//100 51//100 53//100
f 48//101 52//101 29//101
f 48//102 49//102 52//102
f 56//103 44//103 46//103
f 49//104 56//104 50//104
f 54//105 47//105 44//105
f 27//106 13//106 47//106
f 55//107 54//107 56//107
f 48//108 55//108 49//108
o body4poly_nurbsToPoly6
v 0.023571 0.006321 -0.020882
v -0.033390 -0.016698 0.058814
v -0.031754 -0.010164 0.104252
v -0.040240 0.002989 0.094079
v -0.024342 -0.020298 0.104133
v -0.009940 -0.032890 0.094012
v 0.011780 -0.030921 0.099244
v 0.027765 -0.018116 0.065266
v 0.032927 0.007513 0.050891
v 0.009500 -0.026519 0.104601
v 0.019405 -0.019465 0.105136
v 0.026431 -0.009535 0.105416
v 0.029632 0.002385 0.105538
v 0.017681 0.015094 -0.109121
v -0.007509 -0.020110 -0.111638
v 0.015944 -0.011779 -0.110851
v 0.015241 0.024820 0.029547
v 0.027274 0.014867 0.105852
v 0.020282 0.025323 0.106032
v 0.010062 0.032206 0.106081
v -0.001905 0.034752 0.106012
v -0.034650 0.020770 0.093686
v -0.009562 0.035678 0.103546
v -0.031378 0.015534 0.105304
v -0.023587 0.004968 -0.109971
v -0.007452 0.022088 -0.108968
vn -0.6308 -0.7733 0.0645
vn 0.9092 -0.0340 0.4149
vn 0.9619 -0.2592 0.0873
vn -0.8396 -0.5305 -0.1169
vn 0.0037 0.0687 -0.9976
vn 0.3360 -0.9385 -0.0789
vn 0.9948 -0.0741 -0.0694
vn 0.7119 0.7020 -0.0207
vn 0.1839 0.9795 -0.0821
vn -0.8813 0.2854 0.3768
vn -0.4811 0.8716 -0.0938
vn 0.0072 0.9897 -0.1428
vn 0.2672 0.9616 -0.0627
vn -0.8013 -0.5874 0.1133
vn -0.8697 -0.4832 0.1008
vn 0.5743 -0.8134 0.0929
vn 0.9838 -0.1740 0.0430
vn 0.8052 -0.5739 0.1494
vn 0.9579 -0.2605 -0.1205
vn -0.9776 -0.1939 -0.0817
vn -0.5052 -0.8609 -0.0595
vn 0.1045 -0.9927 -0.0605
vn 0.5344 -0.8427 -0.0662
vn 0.0109 0.0635 -0.9979
vn 0.9956 -0.0597 -0.0724
vn 0.8294 0.5556 -0.0583
vn 0.9801 0.1832 0.0763
vn 0.2017 0.9406 -0.2730
vn 0.5579 0.8288 -0.0422
vn 0.7596 0.6410 -0.1097
vn 0.8952 0.4454 -0.0155
vn -0.7268 0.6787 0.1057
vn 0.0081 0.0509 -0.9987
vn -0.9518 0.2975 -0.0748
vn -0.1055 -0.0457 0.9934
s off
f 61//109 58//109 62//109
f 66//110 63//110 64//110
f 68//111 64//111 69//111
f 58//112 81//112 71//112
f 71//113 81//113 70//113
f 63//114 71//114 72//114
f 64//115 72//115 57//115
f 74//116 65//116 73//116
f 76//117 73//117 79//117
f 80//118 78//118 60//118
f 79//119 81//119 78//119
f 79//120 73//120 81//120
f 73//121 70//121 82//121
f 58//122 61//122 59//122
f 58//123 59//123 60//123
f 64//124 67//124 66//124
f 65//125 69//125 64//125
f 64//126 68//126 67//126
f 57//127 65//127 64//127
f 81//128 58//128 60//128
f 71//129 62//129 58//129
f 71//130 63//130 62//130
f 72//131 64//131 63//131
f 70//132 72//132 71//132
f 57//133 72//133 70//133
f 73//134 75//134 74//134
f 65//135 74//135 69//135
f 79//136 77//136 76//136
f 73//137 76//137 75//137
f 57//138 73//138 65//138
f 70//139 73//139 57//139
f 82//140 81//140 73//140
f 70//141 81//141 82//141
f 81//142 60//142 78//142
f 60//143 59//143 61//143 62//143 63//143 66//143 67//143 68//143 69//143 74//143 75//143 76//143 77//143 79//143 78//143 80//143
