# Blender v2.77 (sub 0) OBJ File: ''
# www.blender.org
o nurbsToPoly1_group35
v 0.015476 0.000485 0.088804
v -0.100616 0.000265 -0.030970
v 0.004873 -0.166012 -0.091209
v 0.013619 -0.108161 -0.156324
v -0.048748 -0.096770 -0.157015
v 0.037934 -0.089065 -0.154489
v 0.030604 -0.001578 -0.171516
v -0.009500 -0.024993 -0.188596
v -0.006189 0.022139 -0.188770
v 0.074905 -0.090977 -0.088109
v 0.084578 -0.011717 -0.105916
v -0.010091 -0.168346 -0.102689
v 0.042771 -0.143527 -0.105947
v -0.091669 -0.002023 -0.133367
v -0.078289 -0.069820 -0.153968
v -0.054732 0.014505 -0.178524
v -0.102272 -0.094089 -0.100108
v -0.058285 -0.133326 -0.124997
v -0.112355 -0.044023 -0.097735
v -0.113469 -0.049729 -0.043286
v 0.057537 -0.091695 0.043589
v -0.004655 -0.126598 0.029837
v 0.063278 -0.113205 -0.001663
v 0.104839 -0.006967 0.037697
v 0.034726 -0.129722 0.008303
v 0.082957 -0.050494 0.050783
v 0.098599 0.003367 0.052394
v 0.070897 0.001498 0.074901
v 0.005012 -0.071522 0.075169
v -0.048876 -0.016007 0.071618
v -0.036879 -0.079145 0.056750
v -0.083028 -0.098957 -0.005284
v -0.056594 -0.131971 -0.022643
v -0.094525 -0.050233 0.008152
v 0.092122 0.054874 -0.025104
v -0.042778 0.145620 -0.047327
v -0.005400 0.166085 -0.090449
v -0.097889 0.074755 -0.130225
v -0.066933 0.093731 -0.154624
v -0.117489 0.052878 -0.074980
v -0.090078 0.100346 -0.027390
v -0.102336 0.095268 -0.089337
v -0.049165 0.148868 -0.104167
v -0.012319 0.140963 -0.134514
v 0.056366 0.083505 -0.135973
v 0.016026 0.073413 -0.171627
v 0.061928 0.119030 -0.093576
v 0.033375 0.138103 -0.129139
v 0.027140 0.158292 -0.082759
v -0.001858 0.114034 0.044851
v -0.089067 0.046210 0.020044
v -0.057070 0.091962 0.032929
v -0.014119 0.132564 0.016418
v -0.016716 0.054910 0.077706
v 0.027273 0.080760 0.067341
v 0.074102 0.075683 0.042651
v 0.067146 0.109006 -0.011334
v 0.037505 0.126207 0.014513
vn 0.8512 -0.2118 -0.4802
vn 0.7662 -0.0603 -0.6397
vn 0.8168 -0.3417 -0.4648
vn 0.2872 -0.6979 -0.6561
vn -0.7799 0.0359 -0.6248
vn -0.0583 -0.3752 -0.9251
vn -0.3100 -0.2357 -0.9210
vn -0.3528 -0.1694 -0.9202
vn -0.2082 0.0110 -0.9780
vn -0.1111 -0.6382 -0.7618
vn -0.5151 -0.4847 -0.7069
vn -0.6589 -0.7519 0.0208
vn -0.8748 -0.1544 -0.4591
vn -0.8898 -0.4278 0.1586
vn -0.9214 0.3783 -0.0890
vn 0.7679 -0.5352 0.3519
vn 0.9797 -0.1495 -0.1333
vn 0.8142 -0.2521 0.5229
vn 0.5317 -0.8356 0.1384
vn 0.3608 -0.3223 0.8752
vn -0.2085 -0.9303 0.3016
vn -0.5001 -0.6585 0.5624
vn -0.7230 -0.2855 0.6291
vn -0.8449 0.2602 0.4674
vn -0.2308 -0.5939 0.7707
vn -0.3442 -0.2767 0.8972
vn -0.6595 0.1222 -0.7417
vn -0.2372 0.2469 -0.9396
vn -0.9328 -0.0610 -0.3551
vn -0.7076 0.5977 -0.3768
vn -0.6734 0.7357 0.0730
vn -0.3904 0.9156 0.0962
vn -0.1034 0.3554 -0.9290
vn -0.0695 0.4578 -0.8863
vn 0.4698 0.0900 -0.8781
vn 0.1318 0.5192 -0.8444
vn 0.1130 0.8554 -0.5054
vn 0.5753 0.3356 -0.7459
vn 0.7050 0.6801 -0.2013
vn 0.9464 0.2004 -0.2535
vn -0.9253 0.2400 0.2936
vn -0.5437 0.7378 0.4001
vn 0.1524 0.9394 0.3071
vn 0.6107 0.7691 0.1886
vn 0.3399 0.6334 0.6952
vn 0.1239 0.8549 0.5038
vn 0.9303 0.3374 0.1438
vn -0.9688 0.2476 0.0061
vn 0.4074 -0.0320 -0.9127
vn 0.4533 -0.1335 -0.8813
vn 0.2863 -0.2764 -0.9174
vn 0.4877 -0.5563 -0.6728
vn -0.1080 -0.6374 -0.7629
vn 0.3851 -0.8632 -0.3265
vn -0.7122 -0.4645 -0.5264
vn -0.5939 -0.8043 0.0205
vn -0.7442 -0.6575 0.1173
vn -0.8579 -0.0132 -0.5136
vn -0.9799 -0.1954 -0.0405
vn 0.2779 -0.7377 0.6153
vn 0.9272 -0.3734 0.0287
vn 0.9007 -0.4078 0.1497
vn 0.8557 -0.5172 -0.0179
vn 0.0974 -0.9441 0.3151
vn 0.5446 -0.8272 0.1383
vn 0.5597 -0.7186 0.4126
vn 0.6256 -0.2042 0.7530
vn 0.3675 -0.3753 0.8509
vn 0.1976 -0.6434 0.7396
vn 0.2413 -0.2143 0.9465
vn -0.0840 -0.9494 0.3025
vn -0.4717 -0.6756 0.5667
vn -0.9267 0.1538 0.3428
vn -0.8957 -0.3015 0.3269
vn -0.6668 -0.3402 0.6631
vn -0.2188 -0.1508 0.9640
vn -0.7671 -0.0359 -0.6406
vn -0.9383 0.2572 -0.2311
vn -0.9302 -0.3596 -0.0732
vn -0.9138 0.3774 0.1499
vn -0.1953 0.8649 -0.4624
vn -0.6893 0.5973 -0.4100
vn -0.3664 0.6896 -0.6246
vn -0.6884 0.7156 0.1183
vn 0.6397 0.1232 -0.7587
vn 0.8081 0.3950 -0.4370
vn 0.2953 0.8899 -0.3477
vn 0.7741 0.0298 -0.6323
vn 0.9503 0.1659 -0.2636
vn -0.9570 -0.0717 0.2812
vn -0.7762 0.4073 0.4813
vn -0.8829 -0.2317 0.4085
vn -0.5425 0.7410 0.3957
vn -0.1928 0.9406 0.2793
vn -0.4036 0.6771 0.6153
vn -0.6270 0.2202 0.7473
vn -0.6207 0.2223 0.7519
vn -0.2670 0.0384 0.9629
vn -0.3739 0.5205 0.7676
vn -0.0918 0.5012 0.8604
vn 0.0830 0.2460 0.9657
vn 0.1275 0.9459 0.2984
vn 0.7525 0.6578 0.0324
vn 0.6705 0.6668 0.3252
vn 0.9074 0.4203 -0.0064
vn 0.9882 0.0596 -0.1414
vn 0.9126 0.3898 0.1230
vn 0.4676 0.3354 0.8179
vn 0.3818 0.7232 0.5754
vn 0.2337 0.2190 0.9473
vn 0.5891 0.3006 0.7501
vn 0.9286 0.3359 0.1580
s off
f 11//1 10//1 6//1
f 6//2 7//2 11//2
f 6//3 10//3 13//3
f 4//4 13//4 12//4
f 14//5 16//5 15//5
f 8//6 4//6 5//6
f 8//7 5//7 15//7
f 8//8 15//8 16//8
f 9//9 8//9 16//9
f 5//10 12//10 18//10
f 5//11 18//11 15//11
f 18//12 33//12 17//12
f 15//13 17//13 19//13
f 17//14 32//14 20//14
f 2//15 14//15 19//15
f 26//16 21//16 23//16
f 11//17 24//17 10//17
f 27//18 26//18 24//18
f 13//19 23//19 25//19
f 26//20 28//20 29//20
f 12//21 22//21 33//21
f 33//22 22//22 31//22
f 32//23 31//23 30//23
f 30//24 2//24 34//24
f 31//25 22//25 29//25
f 31//26 29//26 30//26
f 16//27 38//27 39//27
f 9//28 16//28 39//28
f 14//29 40//29 38//29
f 42//30 43//30 38//30
f 42//31 41//31 36//31
f 43//32 36//32 37//32
f 9//33 39//33 46//33
f 39//34 44//34 46//34
f 9//35 46//35 7//35
f 46//36 44//36 48//36
f 44//37 37//37 48//37
f 46//38 48//38 45//38
f 48//39 49//39 47//39
f 45//40 35//40 11//40
f 40//41 51//41 41//41
f 41//42 52//42 53//42
f 37//43 53//43 49//43
f 49//44 58//44 57//44
f 50//45 56//45 58//45
f 53//46 50//46 58//46
f 35//47 56//47 24//47
f 2//48 19//48 20//48
f 7//49 8//49 9//49
f 6//50 8//50 7//50
f 6//51 4//51 8//51
f 13//52 4//52 6//52
f 12//53 5//53 4//53
f 3//54 12//54 13//54
f 17//55 15//55 18//55
f 33//56 18//56 12//56
f 32//57 17//57 33//57
f 19//58 14//58 15//58
f 20//59 19//59 17//59
f 22//60 25//60 21//60
f 10//61 24//61 23//61
f 26//62 23//62 24//62
f 23//63 13//63 10//63
f 22//64 3//64 25//64
f 25//65 3//65 13//65
f 21//66 25//66 23//66
f 28//67 26//67 27//67
f 29//68 21//68 26//68
f 29//69 22//69 21//69
f 1//70 29//70 28//70
f 22//71 12//71 3//71
f 31//72 32//72 33//72
f 2//73 20//73 34//73
f 34//74 20//74 32//74
f 30//75 34//75 32//75
f 1//76 30//76 29//76
f 38//77 16//77 14//77
f 42//78 38//78 40//78
f 40//79 14//79 2//79
f 41//80 42//80 40//80
f 37//81 44//81 43//81
f 43//82 39//82 38//82
f 43//83 44//83 39//83
f 36//84 43//84 42//84
f 45//85 7//85 46//85
f 47//86 45//86 48//86
f 49//87 48//87 37//87
f 11//88 7//88 45//88
f 47//89 35//89 45//89
f 51//90 40//90 2//90
f 52//91 41//91 51//91
f 51//92 2//92 30//92
f 53//93 36//93 41//93
f 53//94 37//94 36//94
f 50//95 53//95 52//95
f 30//96 54//96 52//96
f 30//97 52//97 51//97
f 1//98 54//98 30//98
f 54//99 50//99 52//99
f 50//100 54//100 55//100
f 1//101 55//101 54//101
f 58//102 49//102 53//102
f 57//103 47//103 49//103
f 56//104 57//104 58//104
f 47//105 57//105 35//105
f 24//106 11//106 35//106
f 57//107 56//107 35//107
f 28//108 56//108 55//108
f 55//109 56//109 50//109
f 1//110 28//110 55//110
f 28//111 27//111 56//111
f 27//112 24//112 56//112
